<svg width="16" height="18" viewBox="0 0 16 18" fill="none" xmlns="http://www.w3.org/2000/svg">
<path d="M8.24047 17.9848C7.7894 17.9843 7.35694 17.813 7.03799 17.5084C6.71903 17.2037 6.53965 16.7907 6.5392 16.3599H9.94174C9.94129 16.7907 9.7619 17.2037 9.44295 17.5084C9.124 17.813 8.69154 17.9843 8.24047 17.9848ZM15.9347 15.5352H0.546265V14.7187L2.25609 13.0857V8.1866C2.25627 6.88423 2.72269 5.62106 3.57795 4.60669C4.43321 3.59232 5.62589 2.88773 6.9581 2.60982V1.6545C6.9581 1.32967 7.09321 1.01815 7.3337 0.78846C7.57419 0.558771 7.90036 0.429733 8.24047 0.429733C8.58057 0.429733 8.90675 0.558771 9.14724 0.78846C9.38773 1.01815 9.52284 1.32967 9.52284 1.6545V2.60982C10.8551 2.88773 12.0477 3.59232 12.903 4.60669C13.7582 5.62106 14.2247 6.88423 14.2249 8.1866V13.0857L15.9347 14.7187V15.5352ZM7.38556 10.6361V12.2692H9.09538V10.6361H7.38556ZM7.38556 5.73706V9.00311H9.09538V5.73706H7.38556Z" fill="#C2212A"/>
</svg>
