<svg width="24" height="24" viewBox="0 0 24 24" fill="none" xmlns="http://www.w3.org/2000/svg">
<path d="M11.9924 0C5.36921 0 0 5.36918 0 11.9924C0 18.6156 5.36921 23.9848 11.9924 23.9848C18.6156 23.9848 23.9848 18.6156 23.9848 11.9924C23.9848 5.36924 18.6156 0 11.9924 0ZM11.9924 21.5863C6.69381 21.5863 2.39851 17.291 2.39851 11.9924C2.39851 6.69381 6.69384 2.39848 11.9924 2.39848C17.291 2.39848 21.5863 6.69381 21.5863 11.9924C21.5863 17.291 17.291 21.5863 11.9924 21.5863ZM6.85279 10.2792H17.132V13.7056H6.85279V10.2792Z" fill="white"/>
</svg>
