<svg width="17" height="16" viewBox="0 0 17 16" fill="none" xmlns="http://www.w3.org/2000/svg">
<path d="M14.8667 15.1294L14.8071 15.0791L12.551 12.8894C11.3146 13.8512 9.78907 14.372 8.2193 14.3683C6.39986 14.3865 4.64745 13.6863 3.34646 12.4213C2.04548 11.1563 1.30215 9.42982 1.27954 7.62052C1.30191 5.81121 2.04501 4.08461 3.34583 2.81943C4.64664 1.55426 6.39896 0.853837 8.2184 0.871797C10.0379 0.853835 11.7903 1.55423 13.0913 2.81938C14.3922 4.08453 15.1355 5.81113 15.1582 7.62052C15.1567 9.31647 14.5029 10.9476 13.3307 12.1795L15.5624 14.3432C15.6119 14.391 15.6512 14.4481 15.678 14.5112C15.7048 14.5743 15.7186 14.6422 15.7186 14.7107C15.7186 14.7792 15.7048 14.8471 15.678 14.9102C15.6512 14.9733 15.6119 15.0304 15.5624 15.0782C15.4711 15.1669 15.3513 15.2207 15.2239 15.2301C15.0966 15.2394 14.9701 15.2038 14.8667 15.1294ZM2.34803 7.62052C2.36707 9.15031 2.99518 10.6102 4.09472 11.6803C5.19425 12.7503 6.67551 13.3432 8.21388 13.3291C9.75374 13.3454 11.2372 12.7534 12.3386 11.6832C13.4401 10.6129 14.0695 9.1518 14.0888 7.62052C14.0697 6.08986 13.441 4.62919 12.3405 3.55887C11.24 2.48854 9.75763 1.89594 8.2184 1.91103C6.67909 1.8957 5.19653 2.48823 4.096 3.5586C2.99546 4.62898 2.36683 6.08978 2.34803 7.62052Z" fill="white" stroke="white"/>
</svg>
