<svg width="17" height="17" viewBox="0 0 17 17" fill="none" xmlns="http://www.w3.org/2000/svg">
<path d="M14.9214 9.56157C14.9576 9.29443 14.9754 9.02525 14.9746 8.75583C14.9767 8.48606 14.9559 8.21658 14.9125 7.95008L16.7138 6.59573C16.7913 6.53383 16.8442 6.44795 16.8636 6.35265C16.883 6.25735 16.8677 6.15849 16.8203 6.07286L15.1166 3.22702C15.0664 3.14093 14.9863 3.07477 14.8905 3.04025C14.7947 3.00573 14.6893 3.00509 14.593 3.03844L12.4723 3.86133C12.0323 3.53231 11.5488 3.26134 11.0348 3.05559L10.7153 0.878353C10.6996 0.780232 10.648 0.690808 10.5698 0.626322C10.4917 0.561835 10.3922 0.526563 10.2894 0.526909H6.88198C6.78022 0.526839 6.68188 0.562412 6.60519 0.627035C6.5285 0.691658 6.47867 0.780947 6.46493 0.878353L6.14548 3.05559C5.63213 3.26274 5.1489 3.5336 4.70798 3.86133L2.58721 3.03844C2.49113 3.00308 2.385 3.00272 2.28866 3.03743C2.19231 3.07213 2.11234 3.13952 2.06368 3.22702L0.36884 6.07286C0.314617 6.1568 0.295449 6.25752 0.31522 6.3546C0.334991 6.45169 0.392223 6.53788 0.475322 6.59573L2.27664 7.95008C2.17612 8.48238 2.17012 9.02733 2.25889 9.56157L0.457575 10.9159C0.380094 10.9778 0.327162 11.0637 0.307755 11.159C0.288347 11.2543 0.303659 11.3532 0.351093 11.4388L2.0548 14.2846C2.10496 14.3707 2.18505 14.4369 2.28087 14.4714C2.3767 14.5059 2.48207 14.5066 2.57834 14.4732L4.6991 13.6503C5.13913 13.9793 5.62254 14.2503 6.13661 14.4561L6.45606 16.6333C6.47312 16.7308 6.52512 16.8195 6.60298 16.8837C6.68084 16.9479 6.77959 16.9837 6.88198 16.9847H10.2894C10.3916 16.9863 10.4908 16.9513 10.5678 16.8864C10.6448 16.8215 10.6942 16.7313 10.7065 16.6333L11.0259 14.4561C11.541 14.2522 12.0246 13.9811 12.4634 13.6503L14.5842 14.4732C14.6803 14.5086 14.7864 14.5089 14.8827 14.4742C14.9791 14.4395 15.059 14.3721 15.1077 14.2846L16.8114 11.4388C16.864 11.3544 16.8822 11.2542 16.8625 11.1575C16.8429 11.0609 16.7867 10.9748 16.7049 10.9159L14.9214 9.56157ZM8.58569 11.8417C7.95389 11.8417 7.33627 11.6607 6.81095 11.3216C6.28562 10.9825 5.87618 10.5006 5.6344 9.93673C5.39262 9.37286 5.32936 8.7524 5.45262 8.15381C5.57588 7.55521 5.88012 7.00537 6.32687 6.5738C6.77362 6.14224 7.34282 5.84834 7.96249 5.72928C8.58215 5.61021 9.22445 5.67132 9.80816 5.90488C10.3919 6.13844 10.8908 6.53396 11.2418 7.04142C11.5928 7.54889 11.7802 8.1455 11.7802 8.75583C11.7776 9.57348 11.4402 10.3569 10.8417 10.9351C10.2432 11.5133 9.43212 11.8392 8.58569 11.8417Z" fill="#8F95A3"/>
</svg>
